<svg xmlns="http://www.w3.org/2000/svg" width="610.484" height="288.409" viewBox="0 0 610.484 288.409">
  <g id="Group_180" data-name="Group 180" transform="translate(-1189.516 -320.581)">
    <path id="Path_1493" data-name="Path 1493" d="M18.223,0H592.261c10.065,0,18.223,6.868,18.223,15.341V273.068c0,8.473-8.159,15.341-18.223,15.341H18.223C8.159,288.409,0,281.541,0,273.068V15.341C0,6.868,8.159,0,18.223,0Z" transform="translate(1189.516 320.581)" fill="#2076ff" opacity="0.57"/>
    <path id="Path_1496" data-name="Path 1496" d="M18.223,0H592.261c10.065,0,18.223,6.059,18.223,13.533V240.886c0,7.474-8.159,13.533-18.223,13.533H18.223C8.159,254.419,0,248.36,0,240.886V13.533C0,6.059,8.159,0,18.223,0Z" transform="translate(1189.516 320.581)" fill="#2076ff"/>
  </g>
</svg>
